# AST/ASF file generated using VICON BodyLanguage
# -----------------------------------------------
:version 1.10
:name VICON
:units
  mass 1.0
  length 0.45
  angle deg
:documentation
   .ast/.asf automatically generated from VICON data using
   VICON BodyBuilder and BodyLanguage model FoxedUp or BRILLIANT.MOD
:root
   order TX TY TZ RX RY RZ
   axis XYZ
   position 0 0 0  
   orientation 0 0 0 
:bonedata
  begin
     id 1 
     name lhipjoint
     direction 0.61522 -0.761478 0.204097 
     length 2.55743 
     axis 0 0 0  XYZ
  end
  begin
     id 2 
     name lfemur
     direction 0.34202 -0.939693 0  
     length 7.61162  
     axis 0 0 20  XYZ
    dof rx ry rz
    limits (-160.0 20.0)
           (-70.0 70.0)
           (-60.0 70.0)
  end
  begin
     id 3 
     name ltibia
     direction 0.34202 -0.939693 0   
     length 8.12393   
     axis 0 0 20   XYZ
    dof rx
    limits (-10.0 170.0)
  end
  begin
     id 4 
     name lfoot
     direction 0.0841971 -0.23133 0.969225   
     length 2.3572   
     axis -90 7.62852e-016 20   XYZ
    dof rx rz
    limits (-45.0 90.0)
           (-70.0 20.0)
  end
  begin
     id 5 
     name ltoes
     direction 1.53562e-011 -4.22209e-011 1   
     length 1.17993   
     axis -90 7.62852e-016 20   XYZ
    dof rx
    limits (-90.0 20.0)
  end
  begin
     id 6 
     name rhipjoint
     direction -0.625247 -0.75382 0.202044   
     length 2.58341  
     axis 0 0 0  XYZ 
  end
  begin
     id 7 
     name rfemur
     direction -0.34202 -0.939693 0   
     length 7.42147   
     axis 0 0 -20   XYZ
    dof rx ry rz
    limits (-160.0 20.0)
           (-70.0 70.0)
           (-70.0 60.0)
  end
  begin
     id 8 
     name rtibia
     direction -0.34202 -0.939693 0   
     length 8.20893   
     axis 0 0 -20   XYZ
    dof rx
    limits (-10.0 170.0)
 end
 begin
     id 9 
     name rfoot
     direction -0.124331 -0.341598 0.931586   
     length 2.45604  
     axis -90 -7.62852e-016 -20   XYZ
    dof rx rz
    limits (-45.0 90.0)
           (-20.0 70.0)
  end
  begin
     id 10 
     name rtoes
     direction -1.5353e-011 -4.2199e-011 1   
     length 1.21323   
     axis -90 -7.62852e-016 -20   XYZ
    dof rx
    limits (-90.0 20.0)
  end
  begin
     id 11 
     name lowerback
     direction -0.0218484 0.994884 -0.0986303   
     length 2.00523   
     axis 0 0 0   XYZ
    dof rx ry rz
    limits (-20.0 45.0)
           (-30.0 30.0)
           (-30.0 30.0)
  end
  begin
     id 12 
     name upperback
     direction -0.0097305 0.999717 -0.0217111   
     length 2.01352   
     axis 0 0 0   XYZ
    dof rx ry rz
    limits (-20.0 45.0)
           (-30.0 30.0)
           (-30.0 30.0)
  end
  begin
     id 13 
     name thorax
     direction -0.000928262 0.999699 0.0245198   
     length 2.02938   
     axis 0 0 0   XYZ
    dof rx ry rz
    limits (-20.0 45.0)
           (-30.0 30.0)
           (-30.0 30.0)
  end
  begin
     id 14 
     name lowerneck
     direction -0.0307979 0.998024 0.0547665   
     length 1.77263   
     axis 0 0 0   XYZ
    dof rx ry rz
    limits (-20.0 45.0)
           (-30.0 30.0)
           (-30.0 30.0)
  end
  begin
     id 15 
     name upperneck
     direction 0.0531587 0.996611 -0.0627734   
     length 1.77971   
     axis 0 0 0   XYZ
    dof rx ry rz
    limits (-20.0 45.0)
           (-30.0 30.0)
           (-30.0 30.0)
  end
  begin
     id 16
     name head
     direction 0.0213833 0.999404 -0.0271147  
     length 1.78263  
     axis 0 0 0   XYZ
    dof rx ry rz
    limits (-20.0 45.0)
           (-30.0 30.0)
           (-30.0 30.0)
  end
  begin
     id 17 
     name lclavicle
     direction 0.940017 0.332249 -0.0773233  
     length 3.73315  
     axis 0 0 0   XYZ
    dof ry rz
    limits (-20.0 10.0)
           (0.0 20.0)
  end
  begin
     id 18 
     name lhumerus
     direction 1 -4.48944e-011 7.52288e-028   
     length 5.40188   
     axis 180 -30 -90   XYZ
    dof rx ry rz
    limits (-60.0 90.0)
           (-90.0 90.0)
           (-90.0 90.0)
  end
  begin
     id 19
     name lradius
     direction 1 -4.48988e-011 1.48381e-027   
     length 3.68559   
     axis 180 -30 -90   XYZ
    dof rx
    limits (-10.0 170.0)
  end
  begin
     id 20
     name lwrist
     direction 1 -4.48925e-011 2.56952e-028   
     length 1.84279   
     axis -5.12785e-016 90 90   XYZ
    dof ry
    limits (-180.0 0.0)
 end
  begin
     id 21 
     name lhand
     direction 1 -4.49009e-011 5.13905e-028   
     length 0.61753   
     axis -3.27915e-016 90 90   XYZ
    dof rx rz
    limits (-90.0 90.0)
           (-45.0 45.0)
  end
  begin
     id 22 
     name lfingers
     direction 1 -4.49012e-011 1.02781e-027   
     length 0.497868   
     axis -6.5583e-016 90 90   XYZ
    dof rx
    limits (0.0 90.0)
  end
  begin
     id 23
     name lthumb
     direction 0.707107 -6.34987e-011 0.707107   
     length 0.714842   
     axis -90 45 2.85299e-015   XYZ
    dof rx rz
    limits (-45.0 45.0)
           (-45.0 45.0)
  end
  begin
     id 24 
     name rclavicle
     direction -0.9009 0.425937 -0.0834057   
     length 3.27864  
     axis 0 0 0   XYZ 
    dof ry rz
    limits (-10.0 20.0)
           (-20.0 0.0)
  end
  begin
     id 25 
     name rhumerus
     direction -1 -4.48953e-011 -1.03572e-027  
     length 6.1067   
     axis 180 30 90   XYZ
    dof rx ry rz
    limits (-90.0 60.0)
           (-90.0 90.0)
           (-90.0 90.0)
  end
  begin
     id 26 
     name rradius
     direction -1 -4.48975e-011 1.20742e-027   
     length 3.63052   
     axis 180 30 90   XYZ
    dof rx
    limits (-10.0 170.0)
  end
  begin
     id 27 
     name rwrist
     direction -1 -4.49017e-011 2.56952e-028   
     length 1.81526   
     axis -5.12785e-016 -90 -90   XYZ
    dof ry
    limits (-180.0 0.0)
  end
  begin
     id 28
     name rhand
     direction -1 -4.48832e-011 5.13905e-028   
     length 0.583848   
     axis -3.27915e-016 -90 -90   XYZ
    dof rx rz
    limits (-90.0 90.0)
           (-45.0 45.0)
  end
  begin
     id 29
     name rfingers
     direction -1 -4.48729e-011 1.02781e-027   
     length 0.470713   
     axis -6.5583e-016 -90 -90   XYZ
    dof rx
    limits (0.0 90.0)
  end
  begin
     id 30
     name rthumb
     direction -0.707107 -6.34964e-011 0.707107   
     length 0.675852   
     axis -90 -45 -2.85299e-015   XYZ
    dof rx rz
    limits (-45.0 45.0)
           (-45.0 45.0)
  end
:hierarchy
  begin
    root lhipjoint rhipjoint lowerback
    lhipjoint lfemur
    lfemur ltibia
    ltibia lfoot
    lfoot ltoes
    rhipjoint rfemur
    rfemur rtibia
    rtibia rfoot
    rfoot rtoes
    lowerback upperback
    upperback thorax
    thorax lowerneck lclavicle rclavicle
    lowerneck upperneck
    upperneck head
    lclavicle lhumerus
    lhumerus lradius
    lradius lwrist
    lwrist lhand lthumb
    lhand lfingers
    rclavicle rhumerus
    rhumerus rradius
    rradius rwrist
    rwrist rhand rthumb
    rhand rfingers
  end

#!OML:ASF F:\VICON\USERDATA\INSTALL\rory3\rory3.ASF
:FULLY-SPECIFIED
:DEGREES
32
root 0.227342 16.6763 -2.33164 4.12747 -3.20341 5.331
lowerback 21.7213 0.441965 -4.00423
upperback 4.5778 -0.467491 -1.71151
thorax -7.10828 -0.165663 0.55725
lowerneck -11.9935 -2.25761 -8.61263
upperneck -3.12778 -1.97903 8.82356
head 1.18285 -0.730632 3.98268
rclavicle 5.24916e-015 1.49927e-014
rhumerus -24.7861 0.257633 -80.9102
rradius 39.0002
rwrist 13.6527
rhand -29.5384 -2.47572
rfingers 7.12502
rthumb -2.87172 -32.4361
lclavicle 5.24916e-015 1.49927e-014
lhumerus -28.4526 1.21831 81.4166
lradius 39.6861
lwrist 5.75787
lhand -26.5094 23.6586
lfingers 7.12502
lthumb 0.0537037 53.6383
rfemur -36.0633 4.79124 11.4409
rtibia 68.1046
rfoot -34.2775 -8.29643
rtoes -13.3986
lfemur -34.6107 8.31981 -24.9992
ltibia 64.0388
lfoot -27.6416 -4.27333
ltoes -3.06658
33
root 0.231586 16.5992 -2.33704 4.10254 -3.13029 5.383
lowerback 21.9718 0.423439 -4.04231
upperback 4.68414 -0.510539 -1.72051
thorax -7.12115 -0.186413 0.581279
lowerneck -12.1303 -2.16849 -8.54399
upperneck -3.34813 -1.8472 8.81761
head 1.12656 -0.662711 3.97666
rclavicle -9.51992e-015 -1.44492e-014
rhumerus -24.6515 0.380687 -80.9107
rradius 39.2156
rwrist 13.449
rhand -29.7053 -2.47883
rfingers 7.12502
rthumb -3.03283 -32.437
lclavicle -9.51992e-015 -1.44492e-014
lhumerus -28.2686 1.09485 81.3914
lradius 39.8503
lwrist 5.78116
lhand -26.69 23.7878
lfingers 7.12502
lthumb -0.120711 53.7675
rfemur -36.6532 4.38207 11.3787
rtibia 69.2141
rfoot -34.6231 -8.10283
rtoes -13.4666
lfemur -35.1808 8.48545 -25.1135
ltibia 65.1255
lfoot -27.8886 -4.46167
ltoes -3.08461
34
root 0.234694 16.5197 -2.34178 4.04032 -3.14796 5.55054
lowerback 22.263 0.470538 -4.23798
upperback 4.77685 -0.50898 -1.74648
thorax -7.16975 -0.182377 0.664374
lowerneck -12.2185 -2.16336 -8.52225
upperneck -3.5116 -1.82828 8.80242
head 1.08954 -0.652126 3.96981
rclavicle 1.45579e-014 -3.32343e-015
rhumerus -24.4991 0.490698 -80.8541
rradius 39.3205
rwrist 13.2393
rhand -30.3474 -1.46822
rfingers 7.12502
rthumb -3.65293 -31.4167
lclavicle 1.45579e-014 -3.32343e-015
lhumerus -28.0593 1.02565 81.3782
lradius 39.9527
lwrist 5.74377
lhand -26.889 24.3603
lfingers 7.12502
lthumb -0.312848 54.3398
rfemur -37.2556 4.03997 11.1804
rtibia 70.3178
rfoot -34.9229 -7.93873
rtoes -13.3569
lfemur -35.6975 8.74253 -25.3385
ltibia 66.1918
lfoot -28.1137 -4.90327
ltoes -1.92857
35
root 0.236854 16.4426 -2.35186 4.01625 -3.17039 5.63105
lowerback 22.5745 0.523155 -4.35949
upperback 4.84078 -0.485407 -1.75617
thorax -7.26163 -0.167939 0.716663
lowerneck -12.3383 -2.13107 -8.38491
upperneck -3.64545 -1.78681 8.69707
head 1.0616 -0.632498 3.91708
rclavicle -6.1996e-015 -2.045e-014
rhumerus -24.3578 0.40296 -80.782
rradius 39.4527
rwrist 13.2917
rhand -30.7481 -0.987726
rfingers 7.12502
rthumb -4.03986 -30.9292
lclavicle -6.1996e-015 -2.045e-014
lhumerus -27.9829 0.895657 81.36
lradius 40.1809
lwrist 5.65112
lhand -27.1543 24.7403
lfingers 7.12502
lthumb -0.569141 54.7193
rfemur -37.9337 3.71028 11.1146
rtibia 71.393
rfoot -35.1769 -7.93936
rtoes -13.4807
lfemur -36.3056 9.03549 -25.4728
ltibia 67.2662
lfoot -28.3442 -5.22307
ltoes -1.26806
36
root 0.239301 16.369 -2.36016 4.04012 -3.15301 5.64462
lowerback 22.856 0.547566 -4.42005
upperback 4.85579 -0.485207 -1.7678
thorax -7.39104 -0.164498 0.738423
lowerneck -12.3285 -2.05639 -8.2485
upperneck -3.85009 -1.69552 8.69874
head 0.990711 -0.588839 3.90053
rclavicle -1.12018e-014 -4.27604e-014
rhumerus -24.385 0.212967 -80.74
rradius 39.7722
rwrist 13.6662
rhand -30.3011 -1.4554
rfingers 7.12502
rthumb -3.60827 -31.4046
lclavicle -1.12018e-014 -4.27604e-014
lhumerus -28.0303 0.725324 81.2946
lradius 40.4865
lwrist 5.47145
lhand -27.2913 24.7866
lfingers 7.12502
lthumb -0.701427 54.7652
rfemur -38.6145 3.32488 11.1466
rtibia 72.4341
rfoot -35.399 -8.02204
rtoes -13.6924
lfemur -36.9561 9.26192 -25.5478
ltibia 68.3292
lfoot -28.6414 -5.23034
ltoes -1.98915
37
root 0.242277 16.2915 -2.36393 4.03281 -3.2035 5.68339
lowerback 23.1263 0.592724 -4.53967
upperback 4.85696 -0.472072 -1.77234
thorax -7.52949 -0.153393 0.797758
lowerneck -12.1814 -2.00673 -8.2506
upperneck -4.07433 -1.6284 8.75275
head 0.896912 -0.55796 3.92195
rclavicle 8.77448e-015 -4.29406e-015
rhumerus -24.4319 0.121055 -80.6905
rradius 40.073
rwrist 13.9726
rhand -29.8841 -2.0555
rfingers 7.12502
rthumb -3.2055 -32.0112
lclavicle 8.77448e-015 -4.29406e-015
lhumerus -28.0431 0.690305 81.2343
lradius 40.6526
lwrist 5.37689
lhand -27.4209 24.6783
lfingers 7.12502
lthumb -0.82661 54.6565
rfemur -39.2257 2.92746 11.1504
rtibia 73.4873
rfoot -35.7149 -8.05713
rtoes -13.8019
lfemur -37.5483 9.51182 -25.6438
ltibia 69.4107
lfoot -28.9338 -5.25856
ltoes -2.68412
38
root 0.245623 16.2133 -2.36751 3.96216 -3.26663 5.78104
lowerback 23.4178 0.65258 -4.65467
upperback 4.88329 -0.443419 -1.81523
thorax -7.65218 -0.135739 0.807942
lowerneck -12.0354 -1.99729 -8.27302
upperneck -4.26755 -1.61377 8.8208
head 0.817335 -0.552866 3.94841
rclavicle -7.25875e-015 -1.18587e-014
rhumerus -24.3526 0.0441688 -80.6471
rradius 40.1464
rwrist 13.9931
rhand -30.0931 -1.98731
rfingers 7.12502
rthumb -3.40741 -31.9398
lclavicle -7.25875e-015 -1.18587e-014
lhumerus -27.9932 0.571611 81.189
lradius 40.6705
lwrist 5.56566
lhand -27.6552 24.4897
lfingers 7.12502
lthumb -1.05292 54.4668
rfemur -39.7557 2.53185 11.0917
rtibia 74.5342
rfoot -36.0344 -7.99717
rtoes -13.7205
lfemur -38.0737 9.781 -25.7874
ltibia 70.5025
lfoot -29.2033 -5.36294
ltoes -3.49622
39
root 0.249465 16.1348 -2.37213 3.87506 -3.31228 5.79552
lowerback 23.7155 0.695427 -4.68824
upperback 4.969 -0.414215 -1.84166
thorax -7.71281 -0.121231 0.789541
lowerneck -11.9089 -1.96157 -8.22804
upperneck -4.61916 -1.58083 8.50302
head 0.772279 -0.547676 4.25163
rclavicle 1.82323e-015 -1.6847e-014
rhumerus -24.1695 -0.0695039 -80.6202
rradius 40.2032
rwrist 13.9304
rhand -30.4512 -1.14026
rfingers 7.12502
rthumb -3.75321 -31.087
lclavicle 1.82323e-015 -1.6847e-014
lhumerus -27.8462 0.497874 81.1191
lradius 40.6086
lwrist 5.59613
lhand -28.0389 24.42
lfingers 7.12502
lthumb -1.42353 54.395
rfemur -40.281 2.15259 11.1244
rtibia 75.5769
rfoot -36.3746 -7.78745
rtoes -13.5878
lfemur -38.588 10.0351 -25.8106
ltibia 71.6265
lfoot -29.4128 -5.60788
ltoes -3.71827
40
root 0.249846 16.0588 -2.37758 3.84884 -3.38033 5.76895
lowerback 23.9897 0.750821 -4.7693
upperback 5.0411 -0.376196 -1.82785
thorax -7.77537 -0.101147 0.839459
lowerneck -11.9899 -1.93983 -8.12505
upperneck -4.84052 -1.54836 8.45536
head 0.707636 -0.531779 4.21449
rclavicle -2.2649e-014 -1.62382e-014
rhumerus -23.9633 -0.111861 -80.621
rradius 40.294
rwrist 13.6101
rhand -30.8014 -0.899956
rfingers 7.12502
rthumb -4.09138 -30.8404
lclavicle -2.2649e-014 -1.62382e-014
lhumerus -27.7282 0.506796 81.0596
lradius 40.6168
lwrist 5.58304
lhand -28.2558 24.5757
lfingers 7.12502
lthumb -1.63297 54.5492
rfemur -40.8887 1.83146 11.2106
rtibia 76.5925
rfoot -36.6185 -7.49758
rtoes -13.0525
lfemur -39.2095 10.28 -25.7701
ltibia 72.7502
lfoot -29.5329 -5.97432
ltoes -3.48322
41
root 0.249192 15.9845 -2.38361 3.83388 -3.38418 5.67898
lowerback 24.226 0.755233 -4.79458
upperback 5.12893 -0.384545 -1.78484
thorax -7.79867 -0.104969 0.903652
lowerneck -12.0834 -1.90457 -8.04822
upperneck -5.06019 -1.49409 8.39351
head 0.643936 -0.50466 4.17877
rclavicle 2.40281e-014 3.52346e-014
rhumerus -23.7106 -0.143095 -80.6136
rradius 40.4782
rwrist 13.4817
rhand -30.5142 -1.97827
rfingers 7.12502
rthumb -3.81399 -31.9239
lclavicle 2.40281e-014 3.52346e-014
lhumerus -27.5921 0.659881 80.9793
lradius 40.667
lwrist 5.56215
lhand -28.1275 24.7117
lfingers 7.12502
lthumb -1.50907 54.6861
rfemur -41.4712 1.38072 11.4003
rtibia 77.5807
rfoot -36.653 -7.42458
rtoes -12.5891
lfemur -39.8605 10.4775 -25.6354
ltibia 73.8798
lfoot -29.5536 -6.38656
ltoes -3.3236
42
root 0.250841 15.9155 -2.38718 3.81516 -3.39221 5.64681
lowerback 24.4282 0.749699 -4.83767
upperback 5.20824 -0.412366 -1.78497
thorax -7.81276 -0.118107 0.936615
lowerneck -12.1574 -1.82496 -7.98093
upperneck -5.19709 -1.38438 8.36997
head 0.600233 -0.449445 4.1619
rclavicle 9.4547e-015 2.06736e-014
rhumerus -23.4807 -0.34236 -80.6009
rradius 40.5682
rwrist 13.6687
rhand -30.5745 -2.16528
rfingers 7.12502
rthumb -3.87227 -32.1098
lclavicle 9.4547e-015 2.06736e-014
lhumerus -27.4851 0.807457 80.8438
lradius 40.7027
lwrist 5.62436
lhand -28.0423 24.8577
lfingers 7.12502
lthumb -1.42679 54.8327
rfemur -42.0201 0.865566 11.5298
rtibia 78.5553
rfoot -36.7403 -7.53508
rtoes -12.7028
lfemur -40.4653 10.6425 -25.5544
ltibia 74.9998
lfoot -29.5755 -6.78202
ltoes -2.96985
